<?xml version="1.0" encoding="UTF-8" standalone="no"?>
<!-- Created with Inkscape (http://www.inkscape.org/) -->

<svg
   version="1.1"
   id="svg1"
   width="1341.1733"
   height="664.56"
   viewBox="0 0 1341.1733 664.56"
   xmlns="http://www.w3.org/2000/svg"
   xmlns:svg="http://www.w3.org/2000/svg">
  <defs
     id="defs1">
    <clipPath
       clipPathUnits="userSpaceOnUse"
       id="clipPath3">
      <path
         d="M 0,498.42 H 1005.879 V 0 H 0 Z"
         id="path3" />
    </clipPath>
    <clipPath
       clipPathUnits="userSpaceOnUse"
       id="clipPath5">
      <path
         d="M 0,498.42 H 1005.879 V 0 H 0 Z"
         transform="translate(-446.69621,-152.2384)"
         id="path5" />
    </clipPath>
    <clipPath
       clipPathUnits="userSpaceOnUse"
       id="clipPath7">
      <path
         d="M 0,498.42 H 1005.879 V 0 H 0 Z"
         transform="translate(-488.29331,-140.27751)"
         id="path7" />
    </clipPath>
    <clipPath
       clipPathUnits="userSpaceOnUse"
       id="clipPath9">
      <path
         d="M 0,498.42 H 1005.879 V 0 H 0 Z"
         transform="translate(-510.53212,-152.2384)"
         id="path9" />
    </clipPath>
    <clipPath
       clipPathUnits="userSpaceOnUse"
       id="clipPath11">
      <path
         d="M 0,498.42 H 1005.879 V 0 H 0 Z"
         transform="translate(-534.34312,-136.3351)"
         id="path11" />
    </clipPath>
    <clipPath
       clipPathUnits="userSpaceOnUse"
       id="clipPath13">
      <path
         d="M 0,498.42 H 1005.879 V 0 H 0 Z"
         transform="translate(-555.14152,-152.2384)"
         id="path13" />
    </clipPath>
    <clipPath
       clipPathUnits="userSpaceOnUse"
       id="clipPath15">
      <path
         d="M 0,498.42 H 1005.879 V 0 H 0 Z"
         transform="translate(-609.27622,-143.64471)"
         id="path15" />
    </clipPath>
    <clipPath
       clipPathUnits="userSpaceOnUse"
       id="clipPath17">
      <path
         d="M 0,498.42 H 1005.879 V 0 H 0 Z"
         transform="translate(-620.97062,-137.133)"
         id="path17" />
    </clipPath>
    <clipPath
       clipPathUnits="userSpaceOnUse"
       id="clipPath19">
      <path
         d="M 0,498.42 H 1005.879 V 0 H 0 Z"
         transform="translate(-434.69371,-219.75991)"
         id="path19" />
    </clipPath>
    <clipPath
       clipPathUnits="userSpaceOnUse"
       id="clipPath21">
      <path
         d="M 0,498.42 H 1005.879 V 0 H 0 Z"
         transform="translate(-464.21961,-193.62321)"
         id="path21" />
    </clipPath>
    <clipPath
       clipPathUnits="userSpaceOnUse"
       id="clipPath23">
      <path
         d="M 0,498.42 H 1005.879 V 0 H 0 Z"
         transform="translate(-488.29681,-199.38201)"
         id="path23" />
    </clipPath>
    <clipPath
       clipPathUnits="userSpaceOnUse"
       id="clipPath25">
      <path
         d="M 0,498.42 H 1005.879 V 0 H 0 Z"
         transform="translate(-508.87391,-190.45521)"
         id="path25" />
    </clipPath>
    <clipPath
       clipPathUnits="userSpaceOnUse"
       id="clipPath27">
      <path
         d="M 0,498.42 H 1005.879 V 0 H 0 Z"
         id="path27" />
    </clipPath>
    <clipPath
       clipPathUnits="userSpaceOnUse"
       id="clipPath29">
      <path
         d="M 0,498.42 H 1005.879 V 0 H 0 Z"
         transform="translate(-545.57561,-196.0158)"
         id="path29" />
    </clipPath>
    <clipPath
       clipPathUnits="userSpaceOnUse"
       id="clipPath31">
      <path
         d="M 0,498.42 H 1005.879 V 0 H 0 Z"
         transform="translate(-575.61172,-202.52751)"
         id="path31" />
    </clipPath>
    <clipPath
       clipPathUnits="userSpaceOnUse"
       id="clipPath33">
      <path
         d="M 0,498.42 H 1005.879 V 0 H 0 Z"
         transform="translate(-587.30602,-196.0158)"
         id="path33" />
    </clipPath>
    <clipPath
       clipPathUnits="userSpaceOnUse"
       id="clipPath35">
      <path
         d="M 0,498.42 H 1005.879 V 0 H 0 Z"
         transform="translate(-609.70012,-193.62321)"
         id="path35" />
    </clipPath>
    <clipPath
       clipPathUnits="userSpaceOnUse"
       id="clipPath37">
      <path
         d="M 0,498.42 H 1005.879 V 0 H 0 Z"
         transform="translate(-635.06192,-192.0285)"
         id="path37" />
    </clipPath>
    <clipPath
       clipPathUnits="userSpaceOnUse"
       id="clipPath39">
      <path
         d="M 0,498.42 H 1005.879 V 0 H 0 Z"
         transform="translate(-662.99261,-193.62321)"
         id="path39" />
    </clipPath>
    <clipPath
       clipPathUnits="userSpaceOnUse"
       id="clipPath41">
      <path
         d="M 0,498.42 H 1005.879 V 0 H 0 Z"
         transform="translate(-696.01751,-199.16031)"
         id="path41" />
    </clipPath>
    <clipPath
       clipPathUnits="userSpaceOnUse"
       id="clipPath43">
      <path
         d="M 0,498.42 H 1005.879 V 0 H 0 Z"
         transform="translate(-725.45502,-195.2179)"
         id="path43" />
    </clipPath>
    <clipPath
       clipPathUnits="userSpaceOnUse"
       id="clipPath45">
      <path
         d="M 0,498.42 H 1005.879 V 0 H 0 Z"
         transform="translate(-746.25332,-211.12131)"
         id="path45" />
    </clipPath>
    <clipPath
       clipPathUnits="userSpaceOnUse"
       id="clipPath47">
      <path
         d="M 0,498.42 H 1005.879 V 0 H 0 Z"
         transform="translate(-793.45502,-195.2179)"
         id="path47" />
    </clipPath>
    <clipPath
       clipPathUnits="userSpaceOnUse"
       id="clipPath49">
      <path
         d="M 0,498.42 H 1005.879 V 0 H 0 Z"
         transform="translate(-814.25335,-211.12131)"
         id="path49" />
    </clipPath>
    <clipPath
       clipPathUnits="userSpaceOnUse"
       id="clipPath51">
      <path
         d="M 0,498.42 H 1005.879 V 0 H 0 Z"
         transform="translate(-834.54242,-188.61741)"
         id="path51" />
    </clipPath>
    <clipPath
       clipPathUnits="userSpaceOnUse"
       id="clipPath53">
      <path
         d="M 0,498.42 H 1005.879 V 0 H 0 Z"
         transform="translate(-852.30602,-196.0158)"
         id="path53" />
    </clipPath>
    <clipPath
       clipPathUnits="userSpaceOnUse"
       id="clipPath55">
      <path
         d="M 0,498.42 H 1005.879 V 0 H 0 Z"
         transform="translate(-866.57072,-211.12131)"
         id="path55" />
    </clipPath>
    <clipPath
       clipPathUnits="userSpaceOnUse"
       id="clipPath57">
      <path
         d="M 0,498.42 H 1005.879 V 0 H 0 Z"
         transform="translate(-900.74845,-195.2179)"
         id="path57" />
    </clipPath>
    <clipPath
       clipPathUnits="userSpaceOnUse"
       id="clipPath59">
      <path
         d="M 0,498.42 H 1005.879 V 0 H 0 Z"
         transform="translate(-434.69421,-368.51191)"
         id="path59" />
    </clipPath>
    <clipPath
       clipPathUnits="userSpaceOnUse"
       id="clipPath61">
      <path
         d="M 0,498.42 H 1005.879 V 0 H 0 Z"
         transform="translate(-536.52472,-322.54051)"
         id="path61" />
    </clipPath>
    <clipPath
       clipPathUnits="userSpaceOnUse"
       id="clipPath63">
      <path
         d="M 0,498.42 H 1005.879 V 0 H 0 Z"
         transform="translate(-617.68022,-322.54051)"
         id="path63" />
    </clipPath>
    <clipPath
       clipPathUnits="userSpaceOnUse"
       id="clipPath65">
      <path
         d="M 0,498.42 H 1005.879 V 0 H 0 Z"
         transform="translate(-342.66911,-194.6404)"
         id="path65" />
    </clipPath>
    <clipPath
       clipPathUnits="userSpaceOnUse"
       id="clipPath67">
      <path
         d="M 0,498.42 H 1005.879 V 0 H 0 Z"
         transform="translate(-156.95931,-201.7711)"
         id="path67" />
    </clipPath>
    <clipPath
       clipPathUnits="userSpaceOnUse"
       id="clipPath69">
      <path
         d="M 0,498.42 H 1005.879 V 0 H 0 Z"
         transform="translate(-277.87221,-194.6404)"
         id="path69" />
    </clipPath>
    <clipPath
       clipPathUnits="userSpaceOnUse"
       id="clipPath71">
      <path
         d="M 0,498.42 H 1005.879 V 0 H 0 Z"
         transform="translate(-194.3184,-188.7498)"
         id="path71" />
    </clipPath>
    <clipPath
       clipPathUnits="userSpaceOnUse"
       id="clipPath73">
      <path
         d="M 0,498.42 H 1005.879 V 0 H 0 Z"
         transform="translate(-293.83891,-213.86251)"
         id="path73" />
    </clipPath>
    <clipPath
       clipPathUnits="userSpaceOnUse"
       id="clipPath75">
      <path
         d="M 0,498.42 H 1005.879 V 0 H 0 Z"
         id="path75" />
    </clipPath>
    <clipPath
       clipPathUnits="userSpaceOnUse"
       id="clipPath77">
      <path
         d="M 0,498.42 H 1005.879 V 0 H 0 Z"
         transform="translate(-234.00261,-199.44591)"
         id="path77" />
    </clipPath>
    <clipPath
       clipPathUnits="userSpaceOnUse"
       id="clipPath79">
      <path
         d="M 0,498.42 H 1005.879 V 0 H 0 Z"
         transform="translate(-367.44921,-199.7778)"
         id="path79" />
    </clipPath>
    <clipPath
       clipPathUnits="userSpaceOnUse"
       id="clipPath81">
      <path
         d="M 0,498.42 H 1005.879 V 0 H 0 Z"
         transform="translate(-158.0772,-154.9804)"
         id="path81" />
    </clipPath>
    <clipPath
       clipPathUnits="userSpaceOnUse"
       id="clipPath83">
      <path
         d="M 0,498.42 H 1005.879 V 0 H 0 Z"
         transform="translate(-145.05591,-160.87101)"
         id="path83" />
    </clipPath>
    <clipPath
       clipPathUnits="userSpaceOnUse"
       id="clipPath85">
      <path
         d="M 0,498.42 H 1005.879 V 0 H 0 Z"
         transform="translate(-105.99171,-140.5639)"
         id="path85" />
    </clipPath>
    <clipPath
       clipPathUnits="userSpaceOnUse"
       id="clipPath87">
      <path
         d="M 0,498.42 H 1005.879 V 0 H 0 Z"
         transform="translate(-258.838,-160.87101)"
         id="path87" />
    </clipPath>
    <clipPath
       clipPathUnits="userSpaceOnUse"
       id="clipPath89">
      <path
         d="M 0,498.42 H 1005.879 V 0 H 0 Z"
         transform="translate(-353.55301,-142.8891)"
         id="path89" />
    </clipPath>
    <clipPath
       clipPathUnits="userSpaceOnUse"
       id="clipPath91">
      <path
         d="M 0,498.42 H 1005.879 V 0 H 0 Z"
         id="path91" />
    </clipPath>
    <clipPath
       clipPathUnits="userSpaceOnUse"
       id="clipPath93">
      <path
         d="M 0,498.42 H 1005.879 V 0 H 0 Z"
         transform="translate(-203.34211,-143.0442)"
         id="path93" />
    </clipPath>
    <clipPath
       clipPathUnits="userSpaceOnUse"
       id="clipPath95">
      <path
         d="M 0,498.42 H 1005.879 V 0 H 0 Z"
         transform="translate(-271.85941,-154.9804)"
         id="path95" />
    </clipPath>
    <clipPath
       clipPathUnits="userSpaceOnUse"
       id="clipPath97">
      <path
         d="M 0,498.42 H 1005.879 V 0 H 0 Z"
         transform="translate(-231.24501,-135.6033)"
         id="path97" />
    </clipPath>
    <clipPath
       clipPathUnits="userSpaceOnUse"
       id="clipPath99">
      <path
         d="M 0,498.42 H 1005.879 V 0 H 0 Z"
         transform="translate(-313.99021,-140.8957)"
         id="path99" />
    </clipPath>
    <clipPath
       clipPathUnits="userSpaceOnUse"
       id="clipPath101">
      <path
         d="M 0,498.42 H 1005.879 V 0 H 0 Z"
         id="path101" />
    </clipPath>
    <clipPath
       clipPathUnits="userSpaceOnUse"
       id="clipPath103">
      <path
         d="M 0,498.42 H 1005.879 V 0 H 0 Z"
         id="path103" />
    </clipPath>
    <clipPath
       clipPathUnits="userSpaceOnUse"
       id="clipPath105">
      <path
         d="M 0,498.42 H 1005.879 V 0 H 0 Z"
         id="path105" />
    </clipPath>
    <clipPath
       clipPathUnits="userSpaceOnUse"
       id="clipPath107">
      <path
         d="M 0,498.42 H 1005.879 V 0 H 0 Z"
         id="path107" />
    </clipPath>
    <clipPath
       clipPathUnits="userSpaceOnUse"
       id="clipPath109">
      <path
         d="M 0,498.42 H 1005.879 V 0 H 0 Z"
         id="path109" />
    </clipPath>
    <clipPath
       clipPathUnits="userSpaceOnUse"
       id="clipPath111">
      <path
         d="M 0,498.42 H 1005.879 V 0 H 0 Z"
         id="path111" />
    </clipPath>
    <clipPath
       clipPathUnits="userSpaceOnUse"
       id="clipPath113">
      <path
         d="M 0,498.42 H 1005.879 V 0 H 0 Z"
         id="path113" />
    </clipPath>
    <clipPath
       clipPathUnits="userSpaceOnUse"
       id="clipPath115">
      <path
         d="M 0,498.42 H 1005.879 V 0 H 0 Z"
         id="path115" />
    </clipPath>
    <clipPath
       clipPathUnits="userSpaceOnUse"
       id="clipPath117">
      <path
         d="M 0,498.42 H 1005.879 V 0 H 0 Z"
         id="path117" />
    </clipPath>
    <clipPath
       clipPathUnits="userSpaceOnUse"
       id="clipPath119">
      <path
         d="M 0,498.42 H 1005.879 V 0 H 0 Z"
         transform="translate(-363.21181,-315.19581)"
         id="path119" />
    </clipPath>
    <clipPath
       clipPathUnits="userSpaceOnUse"
       id="clipPath121">
      <path
         d="M 0,498.42 H 1005.879 V 0 H 0 Z"
         id="path121" />
    </clipPath>
    <clipPath
       clipPathUnits="userSpaceOnUse"
       id="clipPath123">
      <path
         d="M 0,498.42 H 1005.879 V 0 H 0 Z"
         transform="translate(-375.22301,-323.73241)"
         id="path123" />
    </clipPath>
    <clipPath
       clipPathUnits="userSpaceOnUse"
       id="clipPath125">
      <path
         d="M 0,498.42 H 1005.879 V 0 H 0 Z"
         id="path125" />
    </clipPath>
    <clipPath
       clipPathUnits="userSpaceOnUse"
       id="clipPath127">
      <path
         d="M 0,498.42 H 1005.879 V 0 H 0 Z"
         transform="translate(-283.52521,-315.19581)"
         id="path127" />
    </clipPath>
    <clipPath
       clipPathUnits="userSpaceOnUse"
       id="clipPath129">
      <path
         d="M 0,498.42 H 1005.879 V 0 H 0 Z"
         id="path129" />
    </clipPath>
    <clipPath
       clipPathUnits="userSpaceOnUse"
       id="clipPath131">
      <path
         d="M 0,498.42 H 1005.879 V 0 H 0 Z"
         transform="translate(-337.44241,-382.38421)"
         id="path131" />
    </clipPath>
    <clipPath
       clipPathUnits="userSpaceOnUse"
       id="clipPath133">
      <path
         d="M 0,498.42 H 1005.879 V 0 H 0 Z"
         id="path133" />
    </clipPath>
    <clipPath
       clipPathUnits="userSpaceOnUse"
       id="clipPath135">
      <path
         d="M 0,498.42 H 1005.879 V 0 H 0 Z"
         transform="translate(-273.5608,-315.19581)"
         id="path135" />
    </clipPath>
    <clipPath
       clipPathUnits="userSpaceOnUse"
       id="clipPath137">
      <path
         d="M 0,498.42 H 1005.879 V 0 H 0 Z"
         id="path137" />
    </clipPath>
    <clipPath
       clipPathUnits="userSpaceOnUse"
       id="clipPath139">
      <path
         d="M 0,498.42 H 1005.879 V 0 H 0 Z"
         transform="translate(-305.50161,-323.73241)"
         id="path139" />
    </clipPath>
    <clipPath
       clipPathUnits="userSpaceOnUse"
       id="clipPath141">
      <path
         d="M 0,498.42 H 1005.879 V 0 H 0 Z"
         id="path141" />
    </clipPath>
    <clipPath
       clipPathUnits="userSpaceOnUse"
       id="clipPath143">
      <path
         d="M 0,498.42 H 1005.879 V 0 H 0 Z"
         id="path143" />
    </clipPath>
    <clipPath
       clipPathUnits="userSpaceOnUse"
       id="clipPath145">
      <path
         d="M 0,498.42 H 1005.879 V 0 H 0 Z"
         transform="translate(-293.49051,-315.19581)"
         id="path145" />
    </clipPath>
    <clipPath
       clipPathUnits="userSpaceOnUse"
       id="clipPath147">
      <path
         d="M 0,498.42 H 1005.879 V 0 H 0 Z"
         transform="translate(-269.43711,-336.37271)"
         id="path147" />
    </clipPath>
    <clipPath
       clipPathUnits="userSpaceOnUse"
       id="clipPath149">
      <path
         d="M 0,498.42 H 1005.879 V 0 H 0 Z"
         id="path149" />
    </clipPath>
    <clipPath
       clipPathUnits="userSpaceOnUse"
       id="clipPath151">
      <path
         d="M 0,498.42 H 1005.879 V 0 H 0 Z"
         transform="translate(-324.87931,-373.99361)"
         id="path151" />
    </clipPath>
    <clipPath
       clipPathUnits="userSpaceOnUse"
       id="clipPath153">
      <path
         d="M 0,498.42 H 1005.879 V 0 H 0 Z"
         id="path153" />
    </clipPath>
    <clipPath
       clipPathUnits="userSpaceOnUse"
       id="clipPath155">
      <path
         d="M 0,498.42 H 1005.879 V 0 H 0 Z"
         transform="translate(-322.10571,-298.11781)"
         id="path155" />
    </clipPath>
    <clipPath
       clipPathUnits="userSpaceOnUse"
       id="clipPath157">
      <path
         d="M 0,498.42 H 1005.879 V 0 H 0 Z"
         id="path157" />
    </clipPath>
    <clipPath
       clipPathUnits="userSpaceOnUse"
       id="clipPath159">
      <path
         d="M 0,498.42 H 1005.879 V 0 H 0 Z"
         id="path159" />
    </clipPath>
    <clipPath
       clipPathUnits="userSpaceOnUse"
       id="clipPath161">
      <path
         d="M 0,498.42 H 1005.879 V 0 H 0 Z"
         id="path161" />
    </clipPath>
    <clipPath
       clipPathUnits="userSpaceOnUse"
       id="clipPath163">
      <path
         d="M 0,498.42 H 1005.879 V 0 H 0 Z"
         id="path163" />
    </clipPath>
    <clipPath
       clipPathUnits="userSpaceOnUse"
       id="clipPath165">
      <path
         d="M 0,498.42 H 1005.879 V 0 H 0 Z"
         id="path165" />
    </clipPath>
    <clipPath
       clipPathUnits="userSpaceOnUse"
       id="clipPath167">
      <path
         d="M 0,498.42 H 1005.879 V 0 H 0 Z"
         transform="translate(-345.69101,-315.19581)"
         id="path167" />
    </clipPath>
    <clipPath
       clipPathUnits="userSpaceOnUse"
       id="clipPath169">
      <path
         d="M 0,498.42 H 1005.879 V 0 H 0 Z"
         transform="translate(-276.4084,-365.78641)"
         id="path169" />
    </clipPath>
    <clipPath
       clipPathUnits="userSpaceOnUse"
       id="clipPath171">
      <path
         d="M 0,498.42 H 1005.879 V 0 H 0 Z"
         transform="translate(-356.31811,-277.0948)"
         id="path171" />
    </clipPath>
    <clipPath
       clipPathUnits="userSpaceOnUse"
       id="clipPath173">
      <path
         d="M 0,498.42 H 1005.879 V 0 H 0 Z"
         transform="translate(-345.91581,-298.11781)"
         id="path173" />
    </clipPath>
    <clipPath
       clipPathUnits="userSpaceOnUse"
       id="clipPath175">
      <path
         d="M 0,498.42 H 1005.879 V 0 H 0 Z"
         transform="translate(-337.44241,-311.09221)"
         id="path175" />
    </clipPath>
    <clipPath
       clipPathUnits="userSpaceOnUse"
       id="clipPath177">
      <path
         d="M 0,498.42 H 1005.879 V 0 H 0 Z"
         transform="translate(-344.99891,-356.11391)"
         id="path177" />
    </clipPath>
    <clipPath
       clipPathUnits="userSpaceOnUse"
       id="clipPath179">
      <path
         d="M 0,498.42 H 1005.879 V 0 H 0 Z"
         transform="translate(-320.94541,-315.19581)"
         id="path179" />
    </clipPath>
    <clipPath
       clipPathUnits="userSpaceOnUse"
       id="clipPath181">
      <path
         d="M 0,498.42 H 1005.879 V 0 H 0 Z"
         transform="translate(-341.56711,-276.08551)"
         id="path181" />
    </clipPath>
    <clipPath
       clipPathUnits="userSpaceOnUse"
       id="clipPath183">
      <path
         d="M 0,498.42 H 1005.879 V 0 H 0 Z"
         transform="translate(-311.67371,-278.62311)"
         id="path183" />
    </clipPath>
    <clipPath
       clipPathUnits="userSpaceOnUse"
       id="clipPath185">
      <path
         d="M 0,498.42 H 1005.879 V 0 H 0 Z"
         transform="translate(-338.13451,-351.04711)"
         id="path185" />
    </clipPath>
    <clipPath
       clipPathUnits="userSpaceOnUse"
       id="clipPath187">
      <path
         d="M 0,498.42 H 1005.879 V 0 H 0 Z"
         id="path187" />
    </clipPath>
    <clipPath
       clipPathUnits="userSpaceOnUse"
       id="clipPath189">
      <path
         d="M 0,498.42 H 1005.879 V 0 H 0 Z"
         transform="translate(-335.45631,-345.95761)"
         id="path189" />
    </clipPath>
    <clipPath
       clipPathUnits="userSpaceOnUse"
       id="clipPath191">
      <path
         d="M 0,498.42 H 1005.879 V 0 H 0 Z"
         transform="translate(-340.18121,-327.83601)"
         id="path191" />
    </clipPath>
    <clipPath
       clipPathUnits="userSpaceOnUse"
       id="clipPath193">
      <path
         d="M 0,498.42 H 1005.879 V 0 H 0 Z"
         id="path193" />
    </clipPath>
    <clipPath
       clipPathUnits="userSpaceOnUse"
       id="clipPath195">
      <path
         d="M 0,498.42 H 1005.879 V 0 H 0 Z"
         transform="translate(-322.15031,-271.9969)"
         id="path195" />
    </clipPath>
  </defs>
  <g
     id="g1">
    <path
       id="path2"
       d="m 434.691,152.238 h 6.512 v -22.371 h -6.512 z m 0.532,9.703 c 0.767,0.767 1.683,1.151 2.746,1.151 1.033,0 1.927,-0.384 2.68,-1.151 0.753,-0.769 1.13,-1.669 1.13,-2.703 0,-1.034 -0.385,-1.934 -1.152,-2.702 -0.768,-0.768 -1.654,-1.152 -2.658,-1.152 -1.063,0 -1.979,0.384 -2.746,1.152 -0.769,0.768 -1.152,1.668 -1.152,2.702 0,1.034 0.383,1.934 1.152,2.703"
       style="fill:#0000ff;fill-opacity:1;fill-rule:nonzero;stroke:none"
       transform="matrix(1.3333333,0,0,-1.3333333,0,664.56)"
       clip-path="url(#clipPath3)" />
    <path
       id="path4"
       d="m 0,0 h 6.069 v -3.189 c 0.709,1.24 1.639,2.193 2.791,2.857 1.152,0.665 2.466,0.997 3.943,0.997 2.746,0 4.813,-0.791 6.202,-2.37 1.388,-1.58 2.082,-3.906 2.082,-6.978 v -13.688 h -6.512 v 12.847 c 0,3.042 -1.27,4.563 -3.81,4.563 -1.3,0 -2.333,-0.406 -3.101,-1.219 C 6.896,-6.992 6.512,-8.077 6.512,-9.436 V -22.371 H 0 Z"
       style="fill:#0000ff;fill-opacity:1;fill-rule:nonzero;stroke:none"
       transform="matrix(1.3333333,0,0,-1.3333333,595.59493,461.57547)"
       clip-path="url(#clipPath5)" />
    <path
       id="path6"
       d="m 0,0 c 0.147,-1.654 0.709,-3.005 1.684,-4.053 0.974,-1.049 2.244,-1.573 3.809,-1.573 1.684,0 3.028,0.591 4.031,1.772 1.004,1.181 1.507,2.672 1.507,4.474 0,1.92 -0.503,3.492 -1.507,4.719 C 8.521,6.563 7.177,7.177 5.493,7.177 3.81,7.177 2.466,6.571 1.462,5.36 0.458,4.149 -0.044,2.599 -0.044,0.709 Z m -6.113,11.961 h 6.069 V 8.373 c 0.738,1.358 1.764,2.406 3.079,3.146 1.314,0.737 2.798,1.107 4.452,1.107 1.889,0 3.61,-0.437 5.161,-1.307 1.55,-0.872 2.79,-2.201 3.721,-3.987 0.93,-1.787 1.396,-3.98 1.396,-6.578 0,-2.6 -0.466,-4.785 -1.396,-6.557 -0.931,-1.772 -2.171,-3.094 -3.721,-3.965 -1.551,-0.871 -3.272,-1.306 -5.161,-1.306 -1.536,0 -2.924,0.332 -4.164,0.996 -1.241,0.665 -2.26,1.601 -3.057,2.813 l 0.133,-3.145 v -9.746 h -6.512 z"
       style="fill:#0000ff;fill-opacity:1;fill-rule:nonzero;stroke:none"
       transform="matrix(1.3333333,0,0,-1.3333333,651.05773,477.52333)"
       clip-path="url(#clipPath7)" />
    <path
       id="path8"
       d="m 0,0 h 6.069 v -3.986 c 0.591,1.298 1.395,2.303 2.414,3.011 1.019,0.709 2.178,1.064 3.478,1.064 0.62,0 1.211,-0.06 1.772,-0.177 V -6.29 c -0.738,0.206 -1.522,0.31 -2.348,0.31 -1.447,0 -2.621,-0.421 -3.522,-1.262 C 6.962,-8.084 6.512,-9.273 6.512,-10.809 V -22.371 H 0 Z"
       style="fill:#0000ff;fill-opacity:1;fill-rule:nonzero;stroke:none"
       transform="matrix(1.3333333,0,0,-1.3333333,680.70947,461.57547)"
       clip-path="url(#clipPath9)" />
    <path
       id="path10"
       d="m 0,0 c 0.989,-1.123 2.355,-1.684 4.098,-1.684 1.712,0 3.056,0.561 4.031,1.684 0.975,1.122 1.462,2.643 1.462,4.562 0,2.039 -0.495,3.64 -1.484,4.807 -0.99,1.167 -2.356,1.75 -4.098,1.75 -1.713,0 -3.056,-0.576 -4.031,-1.727 C -0.997,8.24 -1.484,6.659 -1.484,4.651 -1.484,2.673 -0.99,1.122 0,0 m -2.525,-5.648 c -1.846,0.989 -3.256,2.377 -4.231,4.164 -0.974,1.787 -1.462,3.832 -1.462,6.135 0,2.333 0.488,4.401 1.462,6.203 0.975,1.8 2.377,3.204 4.209,4.209 1.831,1.002 4.016,1.505 6.556,1.505 2.57,0 4.777,-0.509 6.623,-1.528 1.846,-1.019 3.256,-2.43 4.231,-4.23 0.974,-1.802 1.462,-3.884 1.462,-6.248 0,-2.302 -0.488,-4.333 -1.462,-6.09 -0.975,-1.758 -2.378,-3.131 -4.209,-4.12 -1.831,-0.99 -4.017,-1.484 -6.556,-1.484 -2.57,0 -4.778,0.494 -6.623,1.484"
       style="fill:#0000ff;fill-opacity:1;fill-rule:nonzero;stroke:none"
       transform="matrix(1.3333333,0,0,-1.3333333,712.45747,482.77987)"
       clip-path="url(#clipPath11)" />
    <path
       id="path12"
       d="m 0,0 h 6.069 v -3.189 c 0.679,1.24 1.573,2.193 2.681,2.857 1.107,0.665 2.339,0.997 3.698,0.997 3.81,0 6.305,-1.506 7.487,-4.519 0.679,1.417 1.602,2.526 2.769,3.323 1.166,0.798 2.487,1.196 3.964,1.196 2.747,0 4.814,-0.791 6.203,-2.37 1.387,-1.58 2.082,-3.906 2.082,-6.978 V -22.371 H 28.44 v 12.847 c 0,3.042 -1.27,4.563 -3.809,4.563 -1.123,0 -2.053,-0.406 -2.791,-1.219 -0.738,-0.812 -1.108,-1.897 -1.108,-3.256 V -22.371 H 14.22 v 12.847 c 0,3.042 -1.27,4.563 -3.809,4.563 C 9.288,-4.961 8.357,-5.367 7.62,-6.18 6.881,-6.992 6.512,-8.077 6.512,-9.436 V -22.371 H 0 Z"
       style="fill:#0000ff;fill-opacity:1;fill-rule:nonzero;stroke:none"
       transform="matrix(1.3333333,0,0,-1.3333333,740.18867,461.57547)"
       clip-path="url(#clipPath13)" />
    <path
       id="path14"
       d="m 0,0 c -0.207,1.358 -0.62,2.37 -1.241,3.034 -0.62,0.665 -1.55,0.997 -2.79,0.997 -2.275,0 -3.693,-1.343 -4.253,-4.031 z m -11.917,-11.252 c -2.156,2.126 -3.234,4.99 -3.234,8.594 0,2.333 0.465,4.4 1.396,6.202 0.93,1.801 2.237,3.204 3.92,4.209 1.684,1.003 3.618,1.506 5.804,1.506 3.573,0 6.216,-1.049 7.929,-3.146 1.713,-2.097 2.57,-4.962 2.57,-8.593 V -4.43 H -8.417 c 0.236,-1.594 0.849,-2.755 1.838,-3.477 0.99,-0.725 2.414,-1.086 4.275,-1.086 2.717,0 5.213,0.458 7.487,1.373 v -5.537 c -1.241,-0.444 -2.444,-0.768 -3.61,-0.975 -1.168,-0.206 -2.533,-0.309 -4.098,-0.309 -4.105,0 -7.236,1.062 -9.392,3.189"
       style="fill:#0000ff;fill-opacity:1;fill-rule:nonzero;stroke:none"
       transform="matrix(1.3333333,0,0,-1.3333333,812.36827,473.03373)"
       clip-path="url(#clipPath15)" />
    <path
       id="path16"
       d="m 0,0 v 10.056 h -2.702 v 5.049 H 0 v 4.741 l 6.512,1.507 v -6.248 h 5.803 V 10.056 H 6.512 V 0.93 c 0,-2.215 0.886,-3.323 2.658,-3.323 0.591,0 1.115,0.051 1.573,0.156 0.458,0.102 0.982,0.272 1.572,0.508 V -7.266 C 11.458,-7.502 10.699,-7.671 10.034,-7.775 9.37,-7.878 8.624,-7.93 7.797,-7.93 2.599,-7.93 0,-5.287 0,0"
       style="fill:#0000ff;fill-opacity:1;fill-rule:nonzero;stroke:none"
       transform="matrix(1.3333333,0,0,-1.3333333,827.9608,481.716)"
       clip-path="url(#clipPath17)" />
    <path
       id="path18"
       d="M 0,0 H 19.625 V -6.024 H 6.955 v -7.488 h 12.271 v -5.846 H 6.955 V -31.01 H 0 Z"
       style="fill:#0000ff;fill-opacity:1;fill-rule:nonzero;stroke:none"
       transform="matrix(1.3333333,0,0,-1.3333333,579.5916,371.5468)"
       clip-path="url(#clipPath19)" />
    <path
       id="path20"
       d="m 0,0 c 0.516,-0.503 1.203,-0.753 2.06,-0.753 1.211,0 2.222,0.421 3.034,1.263 0.812,0.842 1.218,2.178 1.218,4.009 V 5.537 C 5.515,5.095 4.348,4.799 2.813,4.651 0.421,4.444 -0.775,3.515 -0.775,1.86 -0.775,1.122 -0.517,0.502 0,0 m -4.696,-3.633 c -1.373,1.27 -2.06,2.953 -2.06,5.051 0,4.046 2.747,6.394 8.24,7.043 1.329,0.147 2.333,0.303 3.013,0.466 0.678,0.161 1.144,0.346 1.395,0.553 0.251,0.207 0.377,0.502 0.377,0.886 0,0.709 -0.363,1.292 -1.086,1.75 -0.724,0.457 -1.794,0.687 -3.212,0.687 -2.451,0 -4.947,-0.871 -7.487,-2.615 v 5.539 c 1.093,0.709 2.341,1.292 3.744,1.75 1.402,0.457 2.916,0.686 4.541,0.686 3.248,0 5.685,-0.812 7.309,-2.436 1.624,-1.625 2.437,-3.899 2.437,-6.823 V -4.873 H 7.199 L 7.021,-2.038 C 6.372,-3.16 5.508,-4.024 4.43,-4.63 3.352,-5.234 2.089,-5.537 0.642,-5.537 c -2.185,0 -3.965,0.635 -5.338,1.904"
       style="fill:#0000ff;fill-opacity:1;fill-rule:nonzero;stroke:none"
       transform="matrix(1.3333333,0,0,-1.3333333,618.95947,406.39573)"
       clip-path="url(#clipPath21)" />
    <path
       id="path22"
       d="M 0,0 V -10.632 H -6.512 V 21.265 H 0 V 3.677 l 7.487,8.062 h 8.24 L 6.512,1.86 15.992,-10.632 H 7.974 Z"
       style="fill:#0000ff;fill-opacity:1;fill-rule:nonzero;stroke:none"
       transform="matrix(1.3333333,0,0,-1.3333333,651.0624,398.71733)"
       clip-path="url(#clipPath23)" />
    <path
       id="path24"
       d="M 0,0 C -1.374,1.58 -2.06,3.906 -2.06,6.978 V 20.666 H 4.452 V 7.819 c 0,-3.042 1.196,-4.562 3.588,-4.562 1.299,0 2.304,0.398 3.013,1.195 0.708,0.798 1.063,1.891 1.063,3.278 v 12.936 h 6.512 V -1.705 H 12.559 V 1.352 C 11.85,0.17 10.942,-0.746 9.834,-1.395 8.727,-2.044 7.449,-2.369 6.002,-2.369 3.374,-2.369 1.373,-1.58 0,0"
       style="fill:#0000ff;fill-opacity:1;fill-rule:nonzero;stroke:none"
       transform="matrix(1.3333333,0,0,-1.3333333,678.49853,410.61973)"
       clip-path="url(#clipPath25)" />
    <path
       id="path26"
       d="m 532.995,220.647 h 6.512 v -31.896 h -6.512 z"
       style="fill:#0000ff;fill-opacity:1;fill-rule:nonzero;stroke:none"
       transform="matrix(1.3333333,0,0,-1.3333333,0,664.56)"
       clip-path="url(#clipPath27)" />
    <path
       id="path28"
       d="m 0,0 v 10.056 h -2.702 v 5.049 H 0 v 4.741 l 6.512,1.507 v -6.248 h 5.803 V 10.056 H 6.512 V 0.93 c 0,-2.215 0.886,-3.323 2.658,-3.323 0.591,0 1.115,0.051 1.573,0.156 0.458,0.102 0.982,0.272 1.572,0.508 V -7.266 C 11.458,-7.502 10.699,-7.671 10.034,-7.775 9.37,-7.878 8.624,-7.93 7.797,-7.93 2.599,-7.93 0,-5.287 0,0"
       style="fill:#0000ff;fill-opacity:1;fill-rule:nonzero;stroke:none"
       transform="matrix(1.3333333,0,0,-1.3333333,727.43413,403.2056)"
       clip-path="url(#clipPath29)" />
    <path
       id="path30"
       d="m 0,0 c -0.207,1.358 -0.62,2.37 -1.241,3.034 -0.62,0.665 -1.55,0.997 -2.79,0.997 -2.275,0 -3.693,-1.343 -4.253,-4.031 z m -11.917,-11.252 c -2.156,2.126 -3.234,4.99 -3.234,8.594 0,2.333 0.465,4.4 1.396,6.202 0.93,1.801 2.237,3.204 3.92,4.209 1.684,1.003 3.618,1.506 5.804,1.506 3.573,0 6.216,-1.049 7.929,-3.146 1.713,-2.097 2.57,-4.962 2.57,-8.593 V -4.43 H -8.417 c 0.236,-1.594 0.849,-2.755 1.838,-3.477 0.99,-0.725 2.414,-1.086 4.275,-1.086 2.717,0 5.213,0.458 7.487,1.373 v -5.537 c -1.241,-0.444 -2.444,-0.768 -3.61,-0.975 -1.168,-0.206 -2.533,-0.309 -4.098,-0.309 -4.105,0 -7.236,1.062 -9.392,3.189"
       style="fill:#0000ff;fill-opacity:1;fill-rule:nonzero;stroke:none"
       transform="matrix(1.3333333,0,0,-1.3333333,767.48227,394.52333)"
       clip-path="url(#clipPath31)" />
    <path
       id="path32"
       d="m 0,0 v 10.056 h -2.702 v 5.049 H 0 v 4.741 l 6.512,1.507 v -6.248 h 5.803 V 10.056 H 6.512 V 0.93 c 0,-2.215 0.886,-3.323 2.658,-3.323 0.591,0 1.115,0.051 1.573,0.156 0.458,0.102 0.982,0.272 1.572,0.508 V -7.266 C 11.458,-7.502 10.699,-7.671 10.034,-7.775 9.37,-7.878 8.624,-7.93 7.797,-7.93 2.599,-7.93 0,-5.287 0,0"
       style="fill:#0000ff;fill-opacity:1;fill-rule:nonzero;stroke:none"
       transform="matrix(1.3333333,0,0,-1.3333333,783.07467,403.2056)"
       clip-path="url(#clipPath33)" />
    <path
       id="path34"
       d="m 0,0 c 0.516,-0.503 1.203,-0.753 2.06,-0.753 1.211,0 2.222,0.421 3.034,1.263 0.812,0.842 1.218,2.178 1.218,4.009 V 5.537 C 5.515,5.095 4.348,4.799 2.813,4.651 0.421,4.444 -0.775,3.515 -0.775,1.86 -0.775,1.122 -0.517,0.502 0,0 m -4.696,-3.633 c -1.373,1.27 -2.06,2.953 -2.06,5.051 0,4.046 2.747,6.394 8.24,7.043 1.329,0.147 2.333,0.303 3.013,0.466 0.678,0.161 1.144,0.346 1.395,0.553 0.251,0.207 0.377,0.502 0.377,0.886 0,0.709 -0.363,1.292 -1.086,1.75 -0.724,0.457 -1.794,0.687 -3.212,0.687 -2.451,0 -4.947,-0.871 -7.487,-2.615 v 5.539 c 1.093,0.709 2.341,1.292 3.744,1.75 1.402,0.457 2.916,0.686 4.541,0.686 3.248,0 5.685,-0.812 7.309,-2.436 1.624,-1.625 2.437,-3.899 2.437,-6.823 V -4.873 H 7.199 L 7.021,-2.038 C 6.372,-3.16 5.508,-4.024 4.43,-4.63 3.352,-5.234 2.089,-5.537 0.642,-5.537 c -2.185,0 -3.965,0.635 -5.338,1.904"
       style="fill:#0000ff;fill-opacity:1;fill-rule:nonzero;stroke:none"
       transform="matrix(1.3333333,0,0,-1.3333333,812.93347,406.39573)"
       clip-path="url(#clipPath35)" />
    <path
       id="path36"
       d="M 0,0 9.392,13.866 H 0.31 v 5.227 H 17.809 V 15.815 L 8.461,1.949 h 9.923 V -3.278 H 0 Z"
       style="fill:#0000ff;fill-opacity:1;fill-rule:nonzero;stroke:none"
       transform="matrix(1.3333333,0,0,-1.3333333,846.7492,408.522)"
       clip-path="url(#clipPath37)" />
    <path
       id="path38"
       d="m 0,0 c 0.516,-0.503 1.203,-0.753 2.06,-0.753 1.211,0 2.222,0.421 3.034,1.263 0.812,0.842 1.218,2.178 1.218,4.009 V 5.537 C 5.515,5.095 4.348,4.799 2.813,4.651 0.421,4.444 -0.775,3.515 -0.775,1.86 -0.775,1.122 -0.517,0.502 0,0 m -4.696,-3.633 c -1.373,1.27 -2.06,2.953 -2.06,5.051 0,4.046 2.747,6.394 8.24,7.043 1.329,0.147 2.333,0.303 3.013,0.466 0.678,0.161 1.144,0.346 1.395,0.553 0.251,0.207 0.377,0.502 0.377,0.886 0,0.709 -0.363,1.292 -1.086,1.75 -0.724,0.457 -1.794,0.687 -3.212,0.687 -2.451,0 -4.947,-0.871 -7.487,-2.615 v 5.539 c 1.093,0.709 2.341,1.292 3.744,1.75 1.402,0.457 2.916,0.686 4.541,0.686 3.248,0 5.685,-0.812 7.309,-2.436 1.624,-1.625 2.437,-3.899 2.437,-6.823 V -4.873 H 7.199 L 7.021,-2.038 C 6.372,-3.16 5.508,-4.024 4.43,-4.63 3.352,-5.234 2.089,-5.537 0.642,-5.537 c -2.185,0 -3.965,0.635 -5.338,1.904"
       style="fill:#0000ff;fill-opacity:1;fill-rule:nonzero;stroke:none"
       transform="matrix(1.3333333,0,0,-1.3333333,883.99013,406.39573)"
       clip-path="url(#clipPath39)" />
    <path
       id="path40"
       d="m 0,0 c 0.147,-1.654 0.709,-3.005 1.684,-4.053 0.974,-1.049 2.244,-1.573 3.809,-1.573 1.684,0 3.028,0.591 4.031,1.772 1.004,1.181 1.507,2.672 1.507,4.474 0,1.92 -0.503,3.492 -1.507,4.719 C 8.521,6.563 7.177,7.177 5.493,7.177 3.81,7.177 2.466,6.571 1.462,5.36 0.458,4.149 -0.044,2.599 -0.044,0.709 Z m -6.113,11.961 h 6.069 V 8.373 c 0.738,1.358 1.764,2.406 3.079,3.146 1.314,0.737 2.798,1.107 4.452,1.107 1.889,0 3.61,-0.437 5.161,-1.307 1.55,-0.872 2.79,-2.201 3.721,-3.987 0.93,-1.787 1.396,-3.98 1.396,-6.578 0,-2.6 -0.466,-4.785 -1.396,-6.557 -0.931,-1.772 -2.171,-3.094 -3.721,-3.965 -1.551,-0.871 -3.272,-1.306 -5.161,-1.306 -1.536,0 -2.924,0.332 -4.164,0.996 -1.241,0.665 -2.26,1.601 -3.057,2.813 l 0.133,-3.145 v -9.746 h -6.512 z"
       style="fill:#0000ff;fill-opacity:1;fill-rule:nonzero;stroke:none"
       transform="matrix(1.3333333,0,0,-1.3333333,928.02333,399.01293)"
       clip-path="url(#clipPath41)" />
    <path
       id="path42"
       d="m 0,0 c 0.989,-1.123 2.355,-1.684 4.098,-1.684 1.712,0 3.056,0.561 4.031,1.684 0.975,1.122 1.462,2.643 1.462,4.562 0,2.039 -0.495,3.64 -1.484,4.807 -0.99,1.167 -2.356,1.75 -4.098,1.75 -1.713,0 -3.056,-0.576 -4.031,-1.727 C -0.997,8.24 -1.484,6.659 -1.484,4.651 -1.484,2.673 -0.99,1.122 0,0 m -2.525,-5.648 c -1.846,0.989 -3.256,2.377 -4.231,4.164 -0.974,1.787 -1.462,3.832 -1.462,6.135 0,2.333 0.488,4.401 1.462,6.203 0.975,1.8 2.377,3.204 4.209,4.209 1.831,1.002 4.016,1.505 6.556,1.505 2.57,0 4.777,-0.509 6.623,-1.528 1.846,-1.019 3.256,-2.43 4.231,-4.23 0.974,-1.802 1.462,-3.884 1.462,-6.248 0,-2.302 -0.488,-4.333 -1.462,-6.09 -0.975,-1.758 -2.378,-3.131 -4.209,-4.12 -1.831,-0.99 -4.017,-1.484 -6.556,-1.484 -2.57,0 -4.778,0.494 -6.623,1.484"
       style="fill:#0000ff;fill-opacity:1;fill-rule:nonzero;stroke:none"
       transform="matrix(1.3333333,0,0,-1.3333333,967.27333,404.26947)"
       clip-path="url(#clipPath43)" />
    <path
       id="path44"
       d="m 0,0 h 6.069 v -3.189 c 0.679,1.24 1.573,2.193 2.681,2.857 1.107,0.665 2.339,0.997 3.698,0.997 3.81,0 6.305,-1.506 7.487,-4.519 0.679,1.417 1.602,2.526 2.769,3.323 1.166,0.798 2.487,1.196 3.964,1.196 2.747,0 4.814,-0.791 6.203,-2.37 1.387,-1.58 2.082,-3.906 2.082,-6.978 V -22.371 H 28.44 v 12.847 c 0,3.042 -1.27,4.563 -3.809,4.563 -1.123,0 -2.053,-0.406 -2.791,-1.219 -0.738,-0.812 -1.108,-1.897 -1.108,-3.256 V -22.371 H 14.22 v 12.847 c 0,3.042 -1.27,4.563 -3.809,4.563 C 9.288,-4.961 8.357,-5.367 7.62,-6.18 6.881,-6.992 6.512,-8.077 6.512,-9.436 V -22.371 H 0 Z"
       style="fill:#0000ff;fill-opacity:1;fill-rule:nonzero;stroke:none"
       transform="matrix(1.3333333,0,0,-1.3333333,995.0044,383.06493)"
       clip-path="url(#clipPath45)" />
    <path
       id="path46"
       d="m 0,0 c 0.989,-1.123 2.355,-1.684 4.098,-1.684 1.712,0 3.056,0.561 4.031,1.684 0.975,1.122 1.462,2.643 1.462,4.562 0,2.039 -0.495,3.64 -1.484,4.807 -0.99,1.167 -2.356,1.75 -4.098,1.75 -1.713,0 -3.056,-0.576 -4.031,-1.727 C -0.997,8.24 -1.484,6.659 -1.484,4.651 -1.484,2.673 -0.99,1.122 0,0 m -2.525,-5.648 c -1.846,0.989 -3.256,2.377 -4.231,4.164 -0.974,1.787 -1.462,3.832 -1.462,6.135 0,2.333 0.488,4.401 1.462,6.203 0.975,1.8 2.377,3.204 4.209,4.209 1.831,1.002 4.016,1.505 6.556,1.505 2.57,0 4.777,-0.509 6.623,-1.528 1.846,-1.019 3.256,-2.43 4.231,-4.23 0.974,-1.802 1.462,-3.884 1.462,-6.248 0,-2.302 -0.488,-4.333 -1.462,-6.09 -0.975,-1.758 -2.378,-3.131 -4.209,-4.12 -1.831,-0.99 -4.017,-1.484 -6.556,-1.484 -2.57,0 -4.778,0.494 -6.623,1.484"
       style="fill:#0000ff;fill-opacity:1;fill-rule:nonzero;stroke:none"
       transform="matrix(1.3333333,0,0,-1.3333333,1057.94,404.26947)"
       clip-path="url(#clipPath47)" />
    <path
       id="path48"
       d="m 0,0 h 6.069 v -3.986 c 0.591,1.298 1.395,2.303 2.414,3.011 1.019,0.709 2.178,1.064 3.478,1.064 0.62,0 1.211,-0.06 1.772,-0.177 V -6.29 c -0.738,0.206 -1.522,0.31 -2.348,0.31 -1.447,0 -2.621,-0.421 -3.522,-1.262 C 6.962,-8.084 6.512,-9.273 6.512,-10.809 V -22.371 H 0 Z"
       style="fill:#0000ff;fill-opacity:1;fill-rule:nonzero;stroke:none"
       transform="matrix(1.3333333,0,0,-1.3333333,1085.6711,383.06493)"
       clip-path="url(#clipPath49)" />
    <path
       id="path50"
       d="M 0,0 C -1.389,0.354 -2.599,0.871 -3.633,1.551 V 7.132 C -2.511,6.305 -1.329,5.677 -0.089,5.249 1.152,4.821 2.348,4.607 3.5,4.607 c 2.066,0 3.101,0.576 3.101,1.728 0,0.59 -0.2,1.048 -0.599,1.373 C 5.604,8.033 4.799,8.387 3.588,8.771 L 1.24,9.524 c -1.654,0.561 -2.909,1.344 -3.765,2.348 -0.857,1.004 -1.285,2.318 -1.285,3.943 0,1.358 0.332,2.598 0.997,3.721 0.665,1.122 1.653,2.008 2.968,2.658 1.314,0.65 2.902,0.975 4.762,0.975 2.451,0 4.637,-0.576 6.557,-1.728 v -5.759 c -1.035,0.709 -2.06,1.255 -3.079,1.639 -1.019,0.384 -2.134,0.576 -3.345,0.576 -0.797,0 -1.455,-0.17 -1.971,-0.509 -0.517,-0.34 -0.775,-0.79 -0.775,-1.352 0,-0.56 0.161,-0.989 0.487,-1.284 0.324,-0.296 0.856,-0.547 1.595,-0.753 L 6.911,13.29 C 9.066,12.67 10.617,11.813 11.562,10.721 12.507,9.628 12.98,8.195 12.98,6.424 12.98,4.386 12.197,2.717 10.632,1.418 9.066,0.118 6.881,-0.531 4.076,-0.531 2.747,-0.531 1.388,-0.354 0,0"
       style="fill:#0000ff;fill-opacity:1;fill-rule:nonzero;stroke:none"
       transform="matrix(1.3333333,0,0,-1.3333333,1112.7232,413.07013)"
       clip-path="url(#clipPath51)" />
    <path
       id="path52"
       d="m 0,0 v 10.056 h -2.702 v 5.049 H 0 v 4.741 l 6.512,1.507 v -6.248 h 5.803 V 10.056 H 6.512 V 0.93 c 0,-2.215 0.886,-3.323 2.658,-3.323 0.591,0 1.115,0.051 1.573,0.156 0.458,0.102 0.982,0.272 1.572,0.508 V -7.266 C 11.458,-7.502 10.699,-7.671 10.034,-7.775 9.37,-7.878 8.624,-7.93 7.797,-7.93 2.599,-7.93 0,-5.287 0,0"
       style="fill:#0000ff;fill-opacity:1;fill-rule:nonzero;stroke:none"
       transform="matrix(1.3333333,0,0,-1.3333333,1136.408,403.2056)"
       clip-path="url(#clipPath53)" />
    <path
       id="path54"
       d="M 0,0 H 7.486 L 12.404,-13.068 17.41,0 h 7.486 L 14.265,-22.858 h -3.633 z"
       style="fill:#0000ff;fill-opacity:1;fill-rule:nonzero;stroke:none"
       transform="matrix(1.3333333,0,0,-1.3333333,1155.4276,383.06493)"
       clip-path="url(#clipPath55)" />
    <path
       id="path56"
       d="m 0,0 c 0.988,-1.123 2.354,-1.684 4.098,-1.684 1.713,0 3.056,0.561 4.031,1.684 0.975,1.122 1.461,2.643 1.461,4.562 0,2.039 -0.494,3.64 -1.483,4.807 -0.99,1.167 -2.357,1.75 -4.099,1.75 -1.713,0 -3.057,-0.576 -4.031,-1.727 C -0.998,8.24 -1.484,6.659 -1.484,4.651 -1.484,2.673 -0.99,1.122 0,0 m -2.525,-5.648 c -1.847,0.989 -3.257,2.377 -4.231,4.164 -0.975,1.787 -1.462,3.832 -1.462,6.135 0,2.333 0.487,4.401 1.462,6.203 0.974,1.8 2.377,3.204 4.208,4.209 1.831,1.002 4.017,1.505 6.556,1.505 2.57,0 4.777,-0.509 6.623,-1.528 1.846,-1.019 3.256,-2.43 4.23,-4.23 0.975,-1.802 1.463,-3.884 1.463,-6.248 0,-2.302 -0.488,-4.333 -1.463,-6.09 -0.974,-1.758 -2.377,-3.131 -4.207,-4.12 -1.832,-0.99 -4.017,-1.484 -6.556,-1.484 -2.571,0 -4.778,0.494 -6.623,1.484"
       style="fill:#0000ff;fill-opacity:1;fill-rule:nonzero;stroke:none"
       transform="matrix(1.3333333,0,0,-1.3333333,1200.9979,404.26947)"
       clip-path="url(#clipPath57)" />
    <path
       id="path58"
       d="M 0,0 H 56.887 V -17.464 H 20.161 v -21.702 h 35.57 v -16.95 H 20.161 V -89.889 H 0 Z"
       style="fill:#0000ff;fill-opacity:1;fill-rule:nonzero;stroke:none"
       transform="matrix(1.3333333,0,0,-1.3333333,579.59227,173.2108)"
       clip-path="url(#clipPath59)" />
    <path
       id="path60"
       d="m 0,0 c 5.221,0 9.159,1.197 11.814,3.595 2.652,2.396 3.981,5.949 3.981,10.658 0,4.708 -1.329,8.261 -3.981,10.659 C 9.159,27.307 5.221,28.508 0,28.508 H -8.732 V 0 Z M -28.893,45.971 H 0.514 c 12.07,0 21.188,-2.676 27.352,-8.025 6.163,-5.352 9.245,-13.249 9.245,-23.693 0,-10.445 -3.082,-18.342 -9.245,-23.691 -6.164,-5.352 -15.282,-8.027 -27.352,-8.027 h -9.246 v -26.452 h -20.161 z"
       style="fill:#0000ff;fill-opacity:1;fill-rule:nonzero;stroke:none"
       transform="matrix(1.3333333,0,0,-1.3333333,715.36627,234.506)"
       clip-path="url(#clipPath61)" />
    <path
       id="path62"
       d="m 0,0 c 5.221,0 9.159,1.197 11.814,3.595 2.652,2.396 3.981,5.949 3.981,10.658 0,4.708 -1.329,8.261 -3.981,10.659 C 9.159,27.307 5.221,28.508 0,28.508 H -8.732 V 0 Z M -28.893,45.971 H 0.514 c 12.07,0 21.188,-2.676 27.352,-8.025 6.163,-5.352 9.245,-13.249 9.245,-23.693 0,-10.445 -3.082,-18.342 -9.245,-23.691 -6.164,-5.352 -15.282,-8.027 -27.352,-8.027 h -9.246 v -26.452 h -20.161 z"
       style="fill:#0000ff;fill-opacity:1;fill-rule:nonzero;stroke:none"
       transform="matrix(1.3333333,0,0,-1.3333333,823.5736,234.506)"
       clip-path="url(#clipPath63)" />
    <path
       id="path64"
       d="m 0,0 h -15.192 l 14.727,21.237 v 3.876 H -23.873 V 19.222 H -9.611 L -24.338,-2.015 V -5.891 H 0 Z"
       style="fill:#0000ff;fill-opacity:1;fill-rule:nonzero;stroke:none"
       transform="matrix(1.3333333,0,0,-1.3333333,456.89213,405.03947)"
       clip-path="url(#clipPath65)" />
    <path
       id="path66"
       d="M 0,0 V 17.982 H -6.976 V 0.155 c 0,-4.185 -1.86,-7.441 -6.665,-7.441 -4.186,0 -6.666,2.171 -6.666,7.441 v 17.827 h -6.976 V 0 c 0,-8.371 4.341,-13.641 13.642,-13.641 C -5.271,-13.641 0,-9.456 0,0"
       style="fill:#0000ff;fill-opacity:1;fill-rule:nonzero;stroke:none"
       transform="matrix(1.3333333,0,0,-1.3333333,209.27907,395.53187)"
       clip-path="url(#clipPath67)" />
    <path
       id="path68"
       d="M 0,0 H -14.261 V 7.286 H -1.55 v 5.89 h -12.711 v 6.046 h 14.106 v 5.891 H -21.237 V -5.891 H 0 Z"
       style="fill:#0000ff;fill-opacity:1;fill-rule:nonzero;stroke:none"
       transform="matrix(1.3333333,0,0,-1.3333333,370.49627,405.03947)"
       clip-path="url(#clipPath69)" />
    <path
       id="path70"
       d="M 0,0 V 31.003 H -6.821 V 13.021 l -17.052,17.982 h -3.875 V 0 h 6.821 V 18.292 L -3.875,0 Z"
       style="fill:#0000ff;fill-opacity:1;fill-rule:nonzero;stroke:none"
       transform="matrix(1.3333333,0,0,-1.3333333,259.0912,412.8936)"
       clip-path="url(#clipPath71)" />
    <path
       id="path72"
       d="m 0,0 h 3.72 c 3.876,0 5.736,-1.55 5.736,-4.341 0,-2.945 -1.86,-4.495 -5.736,-4.495 H 0 Z m 0,-14.417 h 2.48 l 4.496,-5.89 c 3.1,-4.186 5.425,-5.581 9.921,-5.426 v 6.201 c -1.86,0 -3.256,1.395 -5.426,4.34 l -1.24,1.706 c 3.565,1.55 6.511,4.65 6.511,9.3 0,6.201 -4.961,10.077 -12.867,10.077 H -6.821 V -25.113 H 0 Z"
       style="fill:#0000ff;fill-opacity:1;fill-rule:nonzero;stroke:none"
       transform="matrix(1.3333333,0,0,-1.3333333,391.7852,379.41)"
       clip-path="url(#clipPath73)" />
    <path
       id="path74"
       d="m 204.239,188.75 h 6.976 v 31.003 h -6.976 z"
       style="fill:#0000ff;fill-opacity:1;fill-rule:nonzero;stroke:none"
       transform="matrix(1.3333333,0,0,-1.3333333,0,664.56)"
       clip-path="url(#clipPath75)" />
    <path
       id="path76"
       d="m 0,0 -8.216,20.307 h -8.061 L -2.48,-10.696 H 2.325 L 16.122,20.307 H 8.216 Z"
       style="fill:#0000ff;fill-opacity:1;fill-rule:nonzero;stroke:none"
       transform="matrix(1.3333333,0,0,-1.3333333,312.00347,398.63213)"
       clip-path="url(#clipPath77)" />
    <path
       id="path78"
       d="M 0,0 -4.03,10.675 -8.105,0 Z m -6.643,19.975 h 5.27 L 12.136,-11.028 H 4.164 l -2.038,5.359 h -12.401 l -2.037,-5.359 h -7.973 z"
       style="fill:#0000ff;fill-opacity:1;fill-rule:nonzero;stroke:none"
       transform="matrix(1.3333333,0,0,-1.3333333,489.93227,398.1896)"
       clip-path="url(#clipPath79)" />
    <path
       id="path80"
       d="m 0,0 h 8.371 v -22.632 c 0,-3.566 -0.31,-8.526 -2.325,-11.782 h 7.285 c 1.706,3.411 2.016,7.441 2.016,12.247 V 5.891 H 0 Z"
       style="fill:#0000ff;fill-opacity:1;fill-rule:nonzero;stroke:none"
       transform="matrix(1.3333333,0,0,-1.3333333,210.7696,457.91947)"
       clip-path="url(#clipPath81)" />
    <path
       id="path82"
       d="m 0,0 h -6.976 v -31.003 h 19.997 v 5.89 H 0 Z"
       style="fill:#0000ff;fill-opacity:1;fill-rule:nonzero;stroke:none"
       transform="matrix(1.3333333,0,0,-1.3333333,193.40787,450.06533)"
       clip-path="url(#clipPath83)" />
    <path
       id="path84"
       d="m 0,0 -8.061,20.307 h -8.061 L -2.48,-10.696 H 2.325 L 15.967,20.307 H 8.061 Z"
       style="fill:#0000ff;fill-opacity:1;fill-rule:nonzero;stroke:none"
       transform="matrix(1.3333333,0,0,-1.3333333,141.32227,477.14147)"
       clip-path="url(#clipPath85)" />
    <path
       id="path86"
       d="m 0,0 h -6.976 v -31.003 h 19.997 v 5.89 H 0 Z"
       style="fill:#0000ff;fill-opacity:1;fill-rule:nonzero;stroke:none"
       transform="matrix(1.3333333,0,0,-1.3333333,345.11733,450.06533)"
       clip-path="url(#clipPath87)" />
    <path
       id="path88"
       d="m 0,0 -17.052,17.982 h -3.875 v -31.003 h 6.82 V 5.271 L 2.945,-13.021 H 6.821 V 17.982 H 0 Z"
       style="fill:#0000ff;fill-opacity:1;fill-rule:nonzero;stroke:none"
       transform="matrix(1.3333333,0,0,-1.3333333,471.404,474.0412)"
       clip-path="url(#clipPath89)" />
    <path
       id="path90"
       d="m 370.295,129.868 h 6.976 v 31.003 h -6.976 z"
       style="fill:#0000ff;fill-opacity:1;fill-rule:nonzero;stroke:none"
       transform="matrix(1.3333333,0,0,-1.3333333,0,664.56)"
       clip-path="url(#clipPath91)" />
    <path
       id="path92"
       d="m 0,0 c 0,-4.186 -1.86,-7.441 -6.666,-7.441 -4.185,0 -6.665,2.17 -6.665,7.441 v 17.827 h -6.976 V -0.155 c 0,-8.371 4.34,-13.641 13.641,-13.641 8.371,0 13.642,4.185 13.642,13.641 V 17.827 H 0 Z"
       style="fill:#0000ff;fill-opacity:1;fill-rule:nonzero;stroke:none"
       transform="matrix(1.3333333,0,0,-1.3333333,271.1228,473.8344)"
       clip-path="url(#clipPath93)" />
    <path
       id="path94"
       d="m 0,0 h 8.371 v -22.632 c 0,-3.566 -0.31,-8.526 -2.325,-11.782 h 7.285 c 1.705,3.411 2.016,7.441 2.016,12.247 V 5.891 H 0 Z"
       style="fill:#0000ff;fill-opacity:1;fill-rule:nonzero;stroke:none"
       transform="matrix(1.3333333,0,0,-1.3333333,362.4792,457.91947)"
       clip-path="url(#clipPath95)" />
    <path
       id="path96"
       d="M 0,0 H -4.185 V 7.286 H 0 c 3.41,0 4.961,-1.24 4.961,-3.721 C 4.961,1.24 3.41,0 0,0 m -4.185,19.687 h 2.79 c 3.1,0 4.65,-1.085 4.65,-3.41 0,-2.481 -1.55,-3.566 -4.65,-3.566 h -2.79 z M 6.669,10.935 c 2.18,1.087 3.717,3.111 3.717,6.427 0,5.27 -3.875,7.906 -10.696,7.906 H -11.316 V -5.736 H 0.93 c 6.976,0 11.316,2.326 11.316,8.681 0,3.937 -1.826,6.85 -5.577,7.99"
       style="fill:#0000ff;fill-opacity:1;fill-rule:nonzero;stroke:none"
       transform="matrix(1.3333333,0,0,-1.3333333,308.32667,483.7556)"
       clip-path="url(#clipPath97)" />
    <path
       id="path98"
       d="M 0,0 -4.03,10.675 -8.105,0 Z m -6.643,19.975 h 5.27 L 12.136,-11.028 H 4.164 l -2.038,5.359 h -12.401 l -2.037,-5.359 h -7.973 z"
       style="fill:#0000ff;fill-opacity:1;fill-rule:nonzero;stroke:none"
       transform="matrix(1.3333333,0,0,-1.3333333,418.6536,476.69907)"
       clip-path="url(#clipPath99)" />
    <path
       id="path100"
       d="m 406.809,89.911 h -2.77 v 318.61 h 2.77 z"
       style="fill:#000000;fill-opacity:1;fill-rule:nonzero;stroke:none"
       transform="matrix(1.3333333,0,0,-1.3333333,0,664.56)"
       clip-path="url(#clipPath101)" />
    <path
       id="path102"
       d="m 373.176,285.452 h 4.094 v 6.17 h -4.094 z"
       style="fill:#000080;fill-opacity:1;fill-rule:nonzero;stroke:none"
       transform="matrix(1.3333333,0,0,-1.3333333,0,664.56)"
       clip-path="url(#clipPath103)" />
    <path
       id="path104"
       d="m 367.337,304.263 h -4.125 v -8.537 h 4.125 z"
       style="fill:#000080;fill-opacity:1;fill-rule:nonzero;stroke:none"
       transform="matrix(1.3333333,0,0,-1.3333333,0,664.56)"
       clip-path="url(#clipPath105)" />
    <path
       id="path106"
       d="m 373.176,295.726 h 4.094 v 8.537 h -4.094 z"
       style="fill:#000080;fill-opacity:1;fill-rule:nonzero;stroke:none"
       transform="matrix(1.3333333,0,0,-1.3333333,0,664.56)"
       clip-path="url(#clipPath107)" />
    <path
       id="path108"
       d="m 363.212,308.366 h 14.058 v 2.726 h -14.058 z"
       style="fill:#000080;fill-opacity:1;fill-rule:nonzero;stroke:none"
       transform="matrix(1.3333333,0,0,-1.3333333,0,664.56)"
       clip-path="url(#clipPath109)" />
    <path
       id="path110"
       d="m 363.212,278.623 h 14.058 v 2.756 h -14.058 z"
       style="fill:#000080;fill-opacity:1;fill-rule:nonzero;stroke:none"
       transform="matrix(1.3333333,0,0,-1.3333333,0,664.56)"
       clip-path="url(#clipPath111)" />
    <path
       id="path112"
       d="m 363.212,285.452 h 4.125 v 6.17 h -4.125 z"
       style="fill:#000080;fill-opacity:1;fill-rule:nonzero;stroke:none"
       transform="matrix(1.3333333,0,0,-1.3333333,0,664.56)"
       clip-path="url(#clipPath113)" />
    <path
       id="path114"
       d="m 373.176,327.836 h 4.094 v 8.537 h -4.094 z"
       style="fill:#000080;fill-opacity:1;fill-rule:nonzero;stroke:none"
       transform="matrix(1.3333333,0,0,-1.3333333,0,664.56)"
       clip-path="url(#clipPath115)" />
    <path
       id="path116"
       d="m 363.212,340.476 h 14.058 v 2.755 h -14.058 z"
       style="fill:#000080;fill-opacity:1;fill-rule:nonzero;stroke:none"
       transform="matrix(1.3333333,0,0,-1.3333333,0,664.56)"
       clip-path="url(#clipPath117)" />
    <path
       id="path118"
       d="M 0,0 H 4.125 V 6.5 C 4.125,7.638 3.191,8.537 2.048,8.537 0.903,8.537 0,7.638 0,6.5 Z"
       style="fill:#000080;fill-opacity:1;fill-rule:nonzero;stroke:none"
       transform="matrix(1.3333333,0,0,-1.3333333,484.2824,244.29893)"
       clip-path="url(#clipPath119)" />
    <path
       id="path120"
       d="m 356.318,365.786 h 20.952 v 2.726 h -20.952 z"
       style="fill:#000080;fill-opacity:1;fill-rule:nonzero;stroke:none"
       transform="matrix(1.3333333,0,0,-1.3333333,0,664.56)"
       clip-path="url(#clipPath121)" />
    <path
       id="path122"
       d="m 0,0 c -1.144,0 -2.047,-0.899 -2.047,-2.037 v -6.5 h 4.094 v 6.5 C 2.047,-0.899 1.144,0 0,0"
       style="fill:#000080;fill-opacity:1;fill-rule:nonzero;stroke:none"
       transform="matrix(1.3333333,0,0,-1.3333333,500.29733,232.9168)"
       clip-path="url(#clipPath123)" />
    <path
       id="path124"
       d="m 367.337,336.373 h -4.125 v -8.537 h 4.125 z"
       style="fill:#000080;fill-opacity:1;fill-rule:nonzero;stroke:none"
       transform="matrix(1.3333333,0,0,-1.3333333,0,664.56)"
       clip-path="url(#clipPath125)" />
    <path
       id="path126"
       d="M 0,0 H 4.125 V 6.5 C 4.125,7.638 3.191,8.537 2.048,8.537 0.904,8.537 0,7.638 0,6.5 Z"
       style="fill:#000080;fill-opacity:1;fill-rule:nonzero;stroke:none"
       transform="matrix(1.3333333,0,0,-1.3333333,378.0336,244.29893)"
       clip-path="url(#clipPath127)" />
    <path
       id="path128"
       d="m 277.685,336.373 h -4.124 v -8.537 h 4.124 z"
       style="fill:#000080;fill-opacity:1;fill-rule:nonzero;stroke:none"
       transform="matrix(1.3333333,0,0,-1.3333333,0,664.56)"
       clip-path="url(#clipPath129)" />
    <path
       id="path130"
       d="M 0,0 V -1.378 H -0.004 V -1.877 H 2.739 V 0 c 0,2.157 -1.444,3.985 -3.432,4.584 v 21.553 h -2.74 v -24.1 h 1.356 C -0.934,2.037 0,1.108 0,0"
       style="fill:#000080;fill-opacity:1;fill-rule:nonzero;stroke:none"
       transform="matrix(1.3333333,0,0,-1.3333333,449.9232,154.7144)"
       clip-path="url(#clipPath131)" />
    <path
       id="path132"
       d="m 303.425,327.836 h 4.124 v 8.537 h -4.124 z"
       style="fill:#000080;fill-opacity:1;fill-rule:nonzero;stroke:none"
       transform="matrix(1.3333333,0,0,-1.3333333,0,664.56)"
       clip-path="url(#clipPath133)" />
    <path
       id="path134"
       d="M 0,0 H 4.124 V 6.5 C 4.124,7.638 3.191,8.537 2.047,8.537 0.903,8.537 0,7.638 0,6.5 Z"
       style="fill:#000080;fill-opacity:1;fill-rule:nonzero;stroke:none"
       transform="matrix(1.3333333,0,0,-1.3333333,364.74773,244.29893)"
       clip-path="url(#clipPath135)" />
    <path
       id="path136"
       d="m 273.561,285.452 h 4.124 v 6.17 h -4.124 z"
       style="fill:#000080;fill-opacity:1;fill-rule:nonzero;stroke:none"
       transform="matrix(1.3333333,0,0,-1.3333333,0,664.56)"
       clip-path="url(#clipPath137)" />
    <path
       id="path138"
       d="m 0,0 c -1.144,0 -2.076,-0.899 -2.076,-2.037 v -6.5 h 4.124 v 6.5 C 2.048,-0.899 1.144,0 0,0"
       style="fill:#000080;fill-opacity:1;fill-rule:nonzero;stroke:none"
       transform="matrix(1.3333333,0,0,-1.3333333,407.33547,232.9168)"
       clip-path="url(#clipPath139)" />
    <path
       id="path140"
       d="m 297.585,336.373 h -4.094 v -8.537 h 4.094 z"
       style="fill:#000080;fill-opacity:1;fill-rule:nonzero;stroke:none"
       transform="matrix(1.3333333,0,0,-1.3333333,0,664.56)"
       clip-path="url(#clipPath141)" />
    <path
       id="path142"
       d="m 287.65,336.373 h -4.125 v -8.537 h 4.125 z"
       style="fill:#000080;fill-opacity:1;fill-rule:nonzero;stroke:none"
       transform="matrix(1.3333333,0,0,-1.3333333,0,664.56)"
       clip-path="url(#clipPath143)" />
    <path
       id="path144"
       d="M 0,0 H 4.094 V 6.5 C 4.094,7.638 3.19,8.537 2.047,8.537 0.903,8.537 0,7.638 0,6.5 Z"
       style="fill:#000080;fill-opacity:1;fill-rule:nonzero;stroke:none"
       transform="matrix(1.3333333,0,0,-1.3333333,391.32067,244.29893)"
       clip-path="url(#clipPath145)" />
    <path
       id="path146"
       d="m 0,0 h -2.739 v -57.75 h 40.851 v 2.756 H 0 v 26.988 h 38.112 v 2.726 H 0 Z"
       style="fill:#000080;fill-opacity:1;fill-rule:nonzero;stroke:none"
       transform="matrix(1.3333333,0,0,-1.3333333,359.24947,216.06307)"
       clip-path="url(#clipPath147)" />
    <path
       id="path148"
       d="m 277.685,304.263 h -4.124 v -8.537 h 4.124 z"
       style="fill:#000080;fill-opacity:1;fill-rule:nonzero;stroke:none"
       transform="matrix(1.3333333,0,0,-1.3333333,0,664.56)"
       clip-path="url(#clipPath149)" />
    <path
       id="path150"
       d="m 0,0 h 20.992 l 3.312,-12.37 h 2.86 L 23.114,2.726 H -2.122 l -4.05,-15.096 h 2.86 z"
       style="fill:#000080;fill-opacity:1;fill-rule:nonzero;stroke:none"
       transform="matrix(1.3333333,0,0,-1.3333333,433.1724,165.90187)"
       clip-path="url(#clipPath151)" />
    <path
       id="path152"
       d="m 303.425,295.726 h 4.124 v 8.537 h -4.124 z"
       style="fill:#000080;fill-opacity:1;fill-rule:nonzero;stroke:none"
       transform="matrix(1.3333333,0,0,-1.3333333,0,664.56)"
       clip-path="url(#clipPath153)" />
    <path
       id="path154"
       d="M 0,0 V -22.032 H 2.739 V 0 c 0,3.385 -2.77,6.14 -6.172,6.14 H -3.569 V 3.407 c 0.12,0 0.016,0.008 0.136,0.008 C -1.536,3.415 0,1.887 0,0"
       style="fill:#000080;fill-opacity:1;fill-rule:nonzero;stroke:none"
       transform="matrix(1.3333333,0,0,-1.3333333,429.47427,267.0696)"
       clip-path="url(#clipPath155)" />
    <path
       id="path156"
       d="m 303.425,285.452 h 4.124 v 6.17 h -4.124 z"
       style="fill:#000080;fill-opacity:1;fill-rule:nonzero;stroke:none"
       transform="matrix(1.3333333,0,0,-1.3333333,0,664.56)"
       clip-path="url(#clipPath157)" />
    <path
       id="path158"
       d="m 283.525,285.452 h 4.125 v 6.17 h -4.125 z"
       style="fill:#000080;fill-opacity:1;fill-rule:nonzero;stroke:none"
       transform="matrix(1.3333333,0,0,-1.3333333,0,664.56)"
       clip-path="url(#clipPath159)" />
    <path
       id="path160"
       d="m 287.65,304.263 h -4.125 v -8.537 h 4.125 z"
       style="fill:#000080;fill-opacity:1;fill-rule:nonzero;stroke:none"
       transform="matrix(1.3333333,0,0,-1.3333333,0,664.56)"
       clip-path="url(#clipPath161)" />
    <path
       id="path162"
       d="m 293.491,285.452 h 4.094 v 6.17 h -4.094 z"
       style="fill:#000080;fill-opacity:1;fill-rule:nonzero;stroke:none"
       transform="matrix(1.3333333,0,0,-1.3333333,0,664.56)"
       clip-path="url(#clipPath163)" />
    <path
       id="path164"
       d="m 297.585,304.263 h -4.094 v -8.537 h 4.094 z"
       style="fill:#000080;fill-opacity:1;fill-rule:nonzero;stroke:none"
       transform="matrix(1.3333333,0,0,-1.3333333,0,664.56)"
       clip-path="url(#clipPath165)" />
    <path
       id="path166"
       d="M 0,0 H 4.124 V 6.5 C 4.124,7.638 3.191,8.537 2.047,8.537 0.903,8.537 0,7.638 0,6.5 Z"
       style="fill:#000080;fill-opacity:1;fill-rule:nonzero;stroke:none"
       transform="matrix(1.3333333,0,0,-1.3333333,460.92133,244.29893)"
       clip-path="url(#clipPath167)" />
    <path
       id="path168"
       d="M 0,0 H 38.035 V 2.726 L -2.107,2.727 -9.681,-25.31 h 40.822 v 2.755 H -6.081 Z"
       style="fill:#000080;fill-opacity:1;fill-rule:nonzero;stroke:none"
       transform="matrix(1.3333333,0,0,-1.3333333,368.54453,176.8448)"
       clip-path="url(#clipPath169)" />
    <path
       id="path170"
       d="M 0,0 2.77,1.528 V 79.107 H 0 Z"
       style="fill:#000080;fill-opacity:1;fill-rule:nonzero;stroke:none"
       transform="matrix(1.3333333,0,0,-1.3333333,475.0908,295.10027)"
       clip-path="url(#clipPath171)" />
    <path
       id="path172"
       d="M 0,0 V -22.032 H 2.739 V 0 c 0,1.887 1.536,3.415 3.432,3.415 0.121,0 0.017,-0.008 0.137,-0.008 V 6.14 H 6.171 C 2.77,6.14 0,3.385 0,0"
       style="fill:#000080;fill-opacity:1;fill-rule:nonzero;stroke:none"
       transform="matrix(1.3333333,0,0,-1.3333333,461.22107,267.0696)"
       clip-path="url(#clipPath173)" />
    <path
       id="path174"
       d="m 0,0 h -4.124 v 7.878 c 0,1.108 0.933,2.036 2.047,2.036 C -0.934,9.914 0,8.986 0,7.878 Z m 2.739,7.878 c 0,2.635 -2.137,4.762 -4.816,4.762 -2.65,0 -4.786,-2.127 -4.786,-4.762 V 0 H -18.906 V -2.726 H 14.781 V 0 H 2.739 Z"
       style="fill:#000080;fill-opacity:1;fill-rule:nonzero;stroke:none"
       transform="matrix(1.3333333,0,0,-1.3333333,449.9232,249.7704)"
       clip-path="url(#clipPath175)" />
    <path
       id="path176"
       d="M 0,0 -9.633,5.539 -9.686,5.573 -19.238,0.03 v -4.705 h -7.224 v -2.756 h 9.964 v 5.901 l 6.835,3.924 6.922,-3.953 v -5.872 h 9.966 v 2.756 H 0 Z"
       style="fill:#000080;fill-opacity:1;fill-rule:nonzero;stroke:none"
       transform="matrix(1.3333333,0,0,-1.3333333,459.99853,189.74147)"
       clip-path="url(#clipPath177)" />
    <path
       id="path178"
       d="M 0,0 H 4.125 V 6.5 C 4.125,7.638 3.22,8.537 2.076,8.537 0.933,8.537 0,7.638 0,6.5 Z"
       style="fill:#000080;fill-opacity:1;fill-rule:nonzero;stroke:none"
       transform="matrix(1.3333333,0,0,-1.3333333,427.9272,244.29893)"
       clip-path="url(#clipPath179)" />
    <path
       id="path180"
       d="m 0,0 v 22.032 c 0,3.385 -2.769,6.141 -6.202,6.141 -3.401,0 -6.171,-2.756 -6.171,-6.141 V 0 h 2.739 v 22.032 c 0,1.888 1.536,3.415 3.432,3.415 1.896,0 3.462,-1.527 3.462,-3.415 L -2.74,0 Z"
       style="fill:#000080;fill-opacity:1;fill-rule:nonzero;stroke:none"
       transform="matrix(1.3333333,0,0,-1.3333333,455.4228,296.446)"
       clip-path="url(#clipPath181)" />
    <path
       id="path182"
       d="M 0,0 2.77,-1.528 V 77.579 H 0 Z"
       style="fill:#000080;fill-opacity:1;fill-rule:nonzero;stroke:none"
       transform="matrix(1.3333333,0,0,-1.3333333,415.56493,293.06253)"
       clip-path="url(#clipPath183)" />
    <path
       id="path184"
       d="m 0,0 c 0,1.54 -1.234,2.787 -2.769,2.787 -1.506,0 -2.74,-1.247 -2.74,-2.787 0,-1.54 1.234,-2.787 2.74,-2.787 C -1.234,-2.787 0,-1.54 0,0"
       style="fill:#000080;fill-opacity:1;fill-rule:nonzero;stroke:none"
       transform="matrix(1.3333333,0,0,-1.3333333,450.846,196.4972)"
       clip-path="url(#clipPath185)" />
    <path
       id="path186"
       d="m 325.07,336.373 h -4.125 v -8.537 h 4.125 z"
       style="fill:#000080;fill-opacity:1;fill-rule:nonzero;stroke:none"
       transform="matrix(1.3333333,0,0,-1.3333333,0,664.56)"
       clip-path="url(#clipPath187)" />
    <path
       id="path188"
       d="m 0,0 c -2.98,0 -5.69,-1.018 -7.827,-2.726 h -9.093 v -2.755 h 10.115 c 1.748,1.707 4.155,2.755 6.805,2.755 2.648,0 5.026,-1.048 6.802,-2.755 h 9.965 v 2.755 H 7.827 C 5.689,-1.018 2.949,0 0,0"
       style="fill:#000080;fill-opacity:1;fill-rule:nonzero;stroke:none"
       transform="matrix(1.3333333,0,0,-1.3333333,447.27507,203.2832)"
       clip-path="url(#clipPath189)" />
    <path
       id="path190"
       d="m 0,0 v 6.5 c 0,2.636 -2.137,4.792 -4.816,4.792 -2.649,0 -4.786,-2.156 -4.786,-4.792 V 0 h 2.739 v 6.5 c 0,1.138 0.933,2.037 2.047,2.037 1.143,0 2.077,-0.899 2.077,-2.037 V 0 Z"
       style="fill:#000080;fill-opacity:1;fill-rule:nonzero;stroke:none"
       transform="matrix(1.3333333,0,0,-1.3333333,453.57493,227.44533)"
       clip-path="url(#clipPath191)" />
    <path
       id="path192"
       d="m 349.815,336.373 h -4.124 v -8.537 h 4.124 z"
       style="fill:#000080;fill-opacity:1;fill-rule:nonzero;stroke:none"
       transform="matrix(1.3333333,0,0,-1.3333333,0,664.56)"
       clip-path="url(#clipPath193)" />
    <path
       id="path194"
       d="m 0,0 -3.614,2.054 v -3.163 l 2.878,-1.617 h 27.932 l 2.877,1.617 V 2.054 L 26.46,0 Z"
       style="fill:#000080;fill-opacity:1;fill-rule:nonzero;stroke:none"
       transform="matrix(1.3333333,0,0,-1.3333333,429.53373,301.89747)"
       clip-path="url(#clipPath195)" />
  </g>
</svg>
